<?xml version="1.0" encoding="UTF-8" standalone="no"?>
<svg
   xmlns:dc="http://purl.org/dc/elements/1.1/"
   xmlns:cc="http://creativecommons.org/ns#"
   xmlns:rdf="http://www.w3.org/1999/02/22-rdf-syntax-ns#"
   xmlns:svg="http://www.w3.org/2000/svg"
   xmlns="http://www.w3.org/2000/svg"
   xmlns:sodipodi="http://sodipodi.sourceforge.net/DTD/sodipodi-0.dtd"
   xmlns:inkscape="http://www.inkscape.org/namespaces/inkscape"
   width="512"
   height="84.229485"
   id="svg2"
   sodipodi:version="0.32"
   inkscape:version="1.0 (1.0+r73)"
   sodipodi:docname="logo.svg"
   inkscape:output_extension="org.inkscape.output.svg.inkscape"
   version="1.0"
   inkscape:export-filename="C:\Users\saula\Documents\GitHub\logo\logo_512.png"
   inkscape:export-xdpi="126.49"
   inkscape:export-ydpi="126.49">
  <defs
     id="defs4" />
  <sodipodi:namedview
     id="base"
     pagecolor="#ffffff"
     bordercolor="#666666"
     borderopacity="1.0"
     gridtolerance="10000"
     guidetolerance="10"
     objecttolerance="10"
     inkscape:pageopacity="0.0"
     inkscape:pageshadow="2"
     inkscape:zoom="1.26"
     inkscape:cx="417.09419"
     inkscape:cy="-18.747372"
     inkscape:document-units="px"
     inkscape:current-layer="layer1"
     inkscape:window-width="1920"
     inkscape:window-height="1018"
     inkscape:window-x="0"
     inkscape:window-y="34"
     showgrid="false"
     fit-margin-top="0"
     fit-margin-left="0"
     fit-margin-right="0"
     fit-margin-bottom="0"
     inkscape:window-maximized="1"
     inkscape:document-rotation="0" />
  <metadata
     id="metadata7">
    <rdf:RDF>
      <cc:Work
         rdf:about="">
        <dc:format>image/svg+xml</dc:format>
        <dc:type
           rdf:resource="http://purl.org/dc/dcmitype/StillImage" />
        <dc:title></dc:title>
      </cc:Work>
    </rdf:RDF>
  </metadata>
  <g
     inkscape:label="Layer 1"
     inkscape:groupmode="layer"
     id="layer1"
     transform="translate(878.53915,685.13681)">
    <g
       transform="matrix(0.69586321,0,0,0.69586321,-267.19608,-208.37531)"
       id="g852">
      <path
         inkscape:connector-curvature="0"
         id="path4618"
         d="m -596.47858,-685.13681 a 32.640565,19.205417 0 0 0 -3.5777,0.13879 c 0.48624,1.01871 1.10407,2.30624 1.27798,2.6626 0.24472,0.50142 0.34348,0.54475 1.86694,0.81568 3.20502,0.56998 6.41581,1.99706 9.00036,4.00063 1.44944,1.12362 3.94781,3.63172 3.94781,3.96323 0,0.10036 0.0688,0.18243 0.1529,0.18243 0.34466,0 3.37493,5.28691 3.37493,5.88825 0,0.0969 0.12007,0.40832 0.26675,0.69198 0.6848,1.32424 1.40916,5.28561 1.41153,7.71942 0.002,1.8006 -0.2532,3.00124 -0.90985,4.28544 -0.53979,1.05567 -2.51088,2.80367 -4.16534,3.69418 -0.26209,0.14107 -0.22711,0.28375 0.3747,1.53752 0.10441,0.21751 0.28892,0.62846 0.49282,1.08144 a 32.640565,19.205417 0 0 0 19.12679,-17.45606 32.640565,19.205417 0 0 0 -32.64062,-19.20553 z"
         style="vector-effect:none;fill:#4d4d4d;fill-opacity:1;stroke:none;stroke-width:0.32028;stroke-linecap:butt;stroke-linejoin:miter;stroke-miterlimit:4;stroke-dasharray:none;stroke-dashoffset:0;stroke-opacity:1" />
      <path
         inkscape:connector-curvature="0"
         id="path4558"
         d="m -608.99463,-683.65015 a 32.640565,19.205417 0 0 0 -20.12457,17.71887 32.640565,19.205417 0 0 0 32.64062,19.20521 32.640565,19.205417 0 0 0 4.58139,-0.21031 l -0.35731,-0.85998 -0.36027,-0.88196 h -2.07693 c -2.39855,-1.6e-4 -4.2649,-0.37516 -6.03753,-1.21269 -1.14099,-0.53908 -2.59473,-1.44513 -2.69312,-1.6786 -0.0308,-0.0731 -0.1283,-0.13289 -0.21688,-0.13289 -0.17446,0 -0.169,0.004 -1.40694,-1.04896 -3.40724,-2.89885 -6.04557,-6.73001 -7.6072,-11.04645 -0.8346,-2.30689 -1.21204,-4.48629 -1.21204,-6.99102 5e-4,-4.76111 1.48873,-7.54935 4.96626,-9.30419 0.64084,-0.32339 1.19607,-0.60644 1.23402,-0.62899 0.0603,-0.0358 -0.0719,-0.34613 -0.68148,-1.5969 -0.0272,-0.0559 -0.34067,-0.70016 -0.64802,-1.33114 z"
         style="vector-effect:none;fill:#b40000;fill-opacity:1;stroke:none;stroke-width:0.32028;stroke-linecap:butt;stroke-linejoin:miter;stroke-miterlimit:4;stroke-dasharray:none;stroke-dashoffset:0;stroke-opacity:1" />
      <path
         d="m -815.06323,-587.66242 q 0,11.12391 -11.19329,17.79826 -9.52512,5.70101 -21.41379,5.70101 -8.89899,0 -17.03334,-3.40671 -9.3858,-3.96289 -13.07045,-10.98484 -0.76505,-1.46001 -0.76505,-2.71145 0,-2.08573 1.66859,-3.61528 1.66859,-1.52955 3.75432,-1.52955 2.36397,0 4.38003,2.71145 6.88292,9.10772 21.0659,9.10772 14.04406,0 20.02302,-7.71721 2.1554,-2.78099 2.1554,-5.3534 0,-4.24096 -4.86685,-7.85625 -3.89323,-2.78099 -8.89898,-4.03243 -4.17147,-1.11236 -9.45546,-1.11236 -8.96865,0 -16.06014,-4.51911 -8.2036,-5.21433 -8.2036,-13.76583 0,-8.5515 8.41218,-13.76583 7.23081,-4.44954 16.40803,-4.44954 5.70073,0 11.3322,2.0162 6.46577,2.2943 9.45546,6.25719 1.39035,1.80762 1.39035,3.40671 0,2.08574 -1.66859,3.68478 -1.59892,1.59905 -3.75432,1.59905 -0.90353,0 -5.77038,-3.26763 -4.79718,-3.26764 -10.98472,-3.26764 -9.45545,0 -13.27943,5.1448 -1.11212,1.46001 -1.11212,2.64191 0,5.00576 8.69041,7.16103 2.92003,0.69525 6.95258,0.69525 11.6801,0 20.99623,5.77051 10.84581,6.74388 10.84581,17.65919 z"
         style="font-style:normal;font-variant:normal;font-weight:normal;font-stretch:normal;font-size:40px;line-height:1.25;font-family:Monofur;-inkscape-font-specification:Monofur;letter-spacing:0px;word-spacing:0px;fill:#b40000;fill-opacity:1;stroke:none;stroke-width:4.17146"
         id="path836" />
      <path
         d="m -726.76728,-585.09001 q 0,1.32098 -0.83429,2.85049 -4.79719,8.34293 -14.39155,13.27919 -9.10768,4.79718 -19.1192,4.79718 -15.64311,0 -26.97531,-10.35916 -11.74976,-10.63724 -11.74976,-26.14115 0,-15.50395 11.74976,-26.14118 11.3322,-10.35913 26.97531,-10.35913 5.70098,0 11.88867,2.0162 6.95242,2.2943 13.83533,7.30006 8.5515,6.2572 8.5515,11.88867 0,2.78099 -2.71145,4.241 l -52.69931,28.36596 q 8.5515,8.76007 21.13526,8.76007 13.41818,0 21.69161,-9.3163 0.97333,-1.25144 2.92003,-3.82381 2.01619,-2.57242 4.3105,-2.57242 2.08573,0 3.75431,1.52955 1.66859,1.52951 1.66859,3.68478 z m -13.14011,-32.88502 q -8.48196,-8.76008 -21.20493,-8.76008 -11.26307,0 -19.606,7.30007 -8.69041,7.64767 -8.69041,18.77158 0,4.44954 1.52967,8.48196 z"
         style="font-style:normal;font-variant:normal;font-weight:normal;font-stretch:normal;font-size:40px;line-height:1.25;font-family:Monofur;-inkscape-font-specification:Monofur;letter-spacing:0px;word-spacing:0px;fill:#4d4d4d;fill-opacity:1;stroke:none;stroke-width:4.17146"
         id="path838" />
      <path
         d="m -643.40754,-569.37748 q 0,5.21433 -5.21433,5.21433 -5.21433,0 -5.21433,-5.21433 v -46.92897 q 0,-4.31054 -3.05906,-7.3696 -3.05906,-3.05906 -7.3696,-3.05906 -4.3105,0 -7.36956,3.05906 -3.0591,3.05906 -3.0591,7.3696 v 46.92897 q 0,5.21433 -5.21433,5.21433 -5.21433,0 -5.21433,-5.21433 v -46.92897 q 0,-4.31054 -3.05906,-7.3696 -3.05906,-3.05906 -7.3696,-3.05906 -4.3105,0 -7.36956,3.05906 -3.0591,3.05906 -3.0591,7.3696 v 46.92897 q 0,5.21433 -5.21433,5.21433 -5.21433,0 -5.21433,-5.21433 v -62.57196 q 0,-5.21433 5.21433,-5.21433 3.54574,0 4.79718,3.05906 5.00576,-3.05906 10.84581,-3.05906 9.38579,0 15.64299,7.09149 6.25719,-7.09149 15.64299,-7.09149 8.62104,0 14.7392,6.11812 6.11812,6.11816 6.11812,14.7392 z"
         style="font-style:normal;font-variant:normal;font-weight:normal;font-stretch:normal;font-size:40px;line-height:1.25;font-family:Monofur;-inkscape-font-specification:Monofur;letter-spacing:0px;word-spacing:0px;fill:#4d4d4d;fill-opacity:1;stroke:none;stroke-width:4.17146"
         id="path840" />
      <path
         id="path870"
         d="m -570.40693,-569.37748 q 0,5.21433 -5.21433,5.21433 h -20.85732 q -5.21433,0 -5.21433,-5.21433 v -57.35763 h -15.64299 q -5.21433,0 -5.21433,-5.21433 0,-5.21433 5.21433,-5.21433 h 20.92686 q 5.14479,0 5.14479,5.21433 v 57.35763 h 15.64299 q 5.21433,0 5.21433,5.21433 z"
         style="font-style:normal;font-variant:normal;font-weight:normal;font-stretch:normal;font-size:40px;line-height:1.25;font-family:Monofur;-inkscape-font-specification:Monofur;letter-spacing:0px;word-spacing:0px;fill:#4d4d4d;fill-opacity:1;stroke:none;stroke-width:4.17146" />
      <path
         d="m -476.549,-600.66346 q 0,14.8087 -9.94197,25.51543 -10.15055,10.98488 -24.82021,10.98488 -14.66966,0 -24.82021,-10.98488 -9.94197,-10.70673 -9.94197,-25.51543 v -62.57195 q 0,-5.21433 5.21433,-5.21433 5.21433,0 5.21433,5.21433 v 36.5003 q 10.08101,-10.42866 24.33352,-10.42866 14.66966,0 24.82021,10.98485 9.94197,10.70677 9.94197,25.51546 z m -10.42866,0 q 0,-10.4982 -6.88291,-18.14586 -7.09149,-7.92579 -17.45061,-7.92579 -10.35912,0 -17.45061,7.92579 -6.88291,7.64766 -6.88291,18.14586 0,10.49816 6.88291,18.14587 7.09149,7.92578 17.45061,7.92578 10.35912,0 17.45061,-7.92578 6.88291,-7.64771 6.88291,-18.14587 z"
         style="font-style:normal;font-variant:normal;font-weight:normal;font-stretch:normal;font-size:40px;line-height:1.25;font-family:Monofur;-inkscape-font-specification:Monofur;letter-spacing:0px;word-spacing:0px;fill:#4d4d4d;fill-opacity:1;stroke:none;stroke-width:4.17146"
         id="path844" />
      <path
         d="m -393.05018,-620.33888 q 0,2.15527 -1.66859,3.75432 -1.59905,1.52955 -3.75432,1.52955 -1.94669,0 -3.89335,-2.01623 -9.59437,-9.66387 -20.30114,-9.66387 -10.77626,0 -18.42397,7.64767 -7.64767,7.64767 -7.64767,18.42398 v 31.28598 q 0,5.21433 -5.21433,5.21433 -5.21433,0 -5.21433,-5.21433 v -62.57196 q 0,-5.21433 5.21433,-5.21433 4.03242,0 5.00575,3.89336 0.27824,1.25144 0.20858,7.09149 10.70677,-10.98485 26.07164,-10.98485 7.92578,0 15.78203,3.61525 8.27343,3.75431 12.58393,9.94201 1.25144,1.80762 1.25144,3.26763 z"
         style="font-style:normal;font-variant:normal;font-weight:normal;font-stretch:normal;font-size:40px;line-height:1.25;font-family:Monofur;-inkscape-font-specification:Monofur;letter-spacing:0px;word-spacing:0px;fill:#4d4d4d;fill-opacity:1;stroke:none;stroke-width:4.17146"
         id="path846" />
      <path
         d="m -309.62091,-585.09001 q 0,1.32098 -0.83429,2.85049 -4.79719,8.34293 -14.39155,13.27919 -9.10768,4.79718 -19.1192,4.79718 -15.64299,0 -26.97548,-10.35916 -11.74963,-10.63724 -11.74963,-26.14115 0,-15.50395 11.74963,-26.14118 11.33249,-10.35913 26.97548,-10.35913 5.70098,0 11.88867,2.0162 6.95242,2.2943 13.83533,7.30006 8.5515,6.2572 8.5515,11.88867 0,2.78099 -2.71145,4.241 l -52.69948,28.36596 q 8.5515,8.76007 21.13543,8.76007 13.41818,0 21.69161,-9.3163 0.97333,-1.25144 2.92003,-3.82381 2.01619,-2.57242 4.3105,-2.57242 2.08573,0 3.75431,1.52955 1.66859,1.52951 1.66859,3.68478 z m -13.14011,-32.88502 q -8.48196,-8.76008 -21.20493,-8.76008 -11.26295,0 -19.60588,7.30007 -8.69057,7.64767 -8.69057,18.77158 0,4.44954 1.52955,8.48196 z"
         style="font-style:normal;font-variant:normal;font-weight:normal;font-stretch:normal;font-size:40px;line-height:1.25;font-family:Monofur;-inkscape-font-specification:Monofur;letter-spacing:0px;word-spacing:0px;fill:#4d4d4d;fill-opacity:1;stroke:none;stroke-width:4.17146"
         id="path848" />
      <path
         d="m -226.19164,-632.08851 q 0,1.25144 -0.62572,2.50288 l -30.79929,61.66816 q -1.9467,3.82382 -5.14483,3.82382 -3.1981,0 -5.14479,-3.82382 l -30.7993,-61.66816 q -0.62572,-1.25144 -0.62572,-2.50288 0,-2.15523 1.66859,-3.61524 1.66859,-1.52955 3.75432,-1.52955 3.05906,0 4.51907,2.92002 l 26.62783,53.2557 26.62787,-53.2557 q 1.46001,-2.92002 4.51907,-2.92002 2.08573,0 3.75432,1.52955 1.66858,1.46001 1.66858,3.61524 z"
         style="font-style:normal;font-variant:normal;font-weight:normal;font-stretch:normal;font-size:40px;line-height:1.25;font-family:Monofur;-inkscape-font-specification:Monofur;letter-spacing:0px;word-spacing:0px;fill:#4d4d4d;fill-opacity:1;stroke:none;stroke-width:4.17146"
         id="path850" />
      <path
         d="m -142.76236,-585.09001 q 0,1.32098 -0.83429,2.85049 -4.79719,8.34293 -14.39155,13.27919 -9.10769,4.79718 -19.1192,4.79718 -15.64299,0 -26.97548,-10.35916 -11.74963,-10.63724 -11.74963,-26.14115 0,-15.50395 11.74963,-26.14118 11.33249,-10.35913 26.97548,-10.35913 5.70097,0 11.88867,2.0162 6.95241,2.2943 13.83533,7.30006 8.5515,6.2572 8.5515,11.88867 0,2.78099 -2.71145,4.241 l -52.69948,28.36596 q 8.5515,8.76007 21.13543,8.76007 13.41818,0 21.69161,-9.3163 0.97333,-1.25144 2.92003,-3.82381 2.01619,-2.57242 4.3105,-2.57242 2.08573,0 3.75431,1.52955 1.66859,1.52951 1.66859,3.68478 z m -13.14011,-32.88502 q -8.48196,-8.76008 -21.20493,-8.76008 -11.26295,0 -19.60588,7.30007 -8.69058,7.64767 -8.69058,18.77158 0,4.44954 1.52955,8.48196 z"
         style="font-style:normal;font-variant:normal;font-weight:normal;font-stretch:normal;font-size:40px;line-height:1.25;font-family:Monofur;-inkscape-font-specification:Monofur;letter-spacing:0px;word-spacing:0px;fill:#4d4d4d;fill-opacity:1;stroke:none;stroke-width:4.17146"
         id="path852" />
    </g>
  </g>
</svg>
